<svg id="Layer_1" data-name="Layer 1" xmlns="http://www.w3.org/2000/svg" viewBox="0 0 750 750"><defs><style>.cls-1,.cls-11,.cls-14,.cls-16,.cls-17,.cls-8{fill:none;stroke-linecap:round;}.cls-1,.cls-11,.cls-14,.cls-16{stroke:#1e2454;}.cls-1,.cls-11,.cls-14,.cls-17,.cls-8{stroke-miterlimit:10;}.cls-1{stroke-width:2px;}.cls-2{fill:#679b35;}.cls-3{fill:#77b541;}.cls-4{fill:#cee0ea;}.cls-5{fill:#adcddb;}.cls-6{fill:#3d6f91;}.cls-7{fill:#1e2454;}.cls-8{stroke:#7f8ac9;}.cls-9{fill:#9e5c38;}.cls-10{fill:#ba8149;}.cls-12{fill:#d1b2b5;}.cls-13{fill:#a52705;}.cls-14{stroke-width:3px;}.cls-15{fill:#d86a61;}.cls-16{stroke-linejoin:round;}.cls-17{stroke:#7fb3c6;}.cls-18{fill:#fff;}</style></defs><line class="cls-1" x1="483.32" y1="430.38" x2="483.32" y2="661.46"/><path class="cls-2" d="M552.92,668.83a25.1,25.1,0,1,1,50.2,0"/><path class="cls-3" d="M517.17,611a57.71,57.71,0,0,0-42.41,18.51,39.37,39.37,0,0,0-36.36,24.45h0a14.91,14.91,0,0,0-14.91,14.91H575A57.87,57.87,0,0,0,517.17,611Z"/><path class="cls-2" d="M483.32,621.91a58.12,58.12,0,0,0-8.56,7.56,39.37,39.37,0,0,0-36.36,24.45h0a14.91,14.91,0,0,0-14.91,14.91h59.83Z"/><path class="cls-1" d="M517.17,611a57.71,57.71,0,0,0-42.41,18.51"/><path class="cls-1" d="M438.4,653.92h0a14.91,14.91,0,0,0-14.9,14.91H603.12a25.1,25.1,0,0,0-33.19-23.76"/><rect class="cls-4" x="305.32" y="105.58" width="356" height="324.8" rx="7.52"/><line class="cls-1" x1="653.79" y1="430.38" x2="312.84" y2="430.38"/><path class="cls-5" d="M305.32,113.1V132h356V113.1a7.42,7.42,0,0,0-.37-2.32H305.69A7.42,7.42,0,0,0,305.32,113.1Z"/><path class="cls-6" d="M192.15,463.86c22-88.5-3.88-127.27-3.88-127.27l-53.2-1.41S76.68,443,133.59,654.3l-22.52,14.53h73.2S176,529,192.15,463.86Z"/><path class="cls-7" d="M149.36,659.63a13.4,13.4,0,0,1-5.34-1.1l-10.37-4.44.08.21-27.95,14.53h78.63s-.29-3.22-.72-8.89l-.11-.31Z"/><path class="cls-6" d="M227.91,461c22-88.5.5-124.37.5-124.37l-75.34,5.58S110.37,494.3,173.73,654.3l-27.95,14.53h78.63S211.72,526.08,227.91,461Z"/><path class="cls-7" d="M188.27,336.59l-53.2-1.41s-4.76,8.81-10.24,26.3c27.61,2.49,57.34-1.63,70.32-8.43C191.81,341.9,188.27,336.59,188.27,336.59Z"/><line class="cls-8" x1="228.41" y1="336.59" x2="153.07" y2="342.17"/><path class="cls-9" d="M229.68,291.65c0-41.55-18.56-76.54-43.83-87.07a33.22,33.22,0,0,1-39.07,10c-11.32,17.9-12.6,51.51-12.6,85.57,0,10.26-6.57,32.07-7.91,44a5.89,5.89,0,0,0,4.21,6.33c12.45,3.59,32.12,4.07,45,4.07,14.61,0,39.34-4.42,52.75-11a9.85,9.85,0,0,0,5.51-7.91C234.89,323,229.68,304.05,229.68,291.65Z"/><path class="cls-10" d="M133.34,308.44c-1.06,6.48-2.92,14.36-4.5,21.64q9.78-.12,20-.62c32.79-1.62,62.38-5.95,83.89-11.67-1-7.23-2.3-14.68-2.83-21.09-21.35,5.5-50.21,9.64-82.12,11.22Q140.46,308.28,133.34,308.44Z"/><path class="cls-11" d="M130.48,350.5c12.45,3.59,32.12,4.07,45,4.07,14.61,0,39.34-4.42,52.75-11"/><path class="cls-9" d="M146.78,214.58s-88,59.72-80,105,124.88,36.64,134.28,19,16.76-16.76,23.39-24.66S201,315,201,315s3.53-9.83-5-7.5-15.78,18.57-63,10.84c-38.66-6.34,24.34-47.84,24.34-47.84l-13-15.16"/><path class="cls-10" d="M147.39,299.8c32-1.57,60.88-5.73,82.25-11.24a133.69,133.69,0,0,0-2.17-21.26c-21.25,5.36-49.72,9.41-81.14,11q-6,.3-11.89.46c-.2,7-.26,14.22-.26,21.43v.15Q140.69,300.14,147.39,299.8Z"/><path class="cls-7" d="M134.24,255.3s-11.37,26.2-8.37,42.2a81.76,81.76,0,0,1,8.37-8.9C134.24,288.55,131.76,267,134.24,255.3Z"/><path class="cls-11" d="M125.87,297.5a81.76,81.76,0,0,1,8.37-8.9"/><path class="cls-12" d="M201,315s3.53-9.83-5-7.5c-4.53,1.25-8.72,6.47-18.85,9.87,2,7.63,4.17,20.54.06,32.13,12.36-2.59,21.39-6.44,23.74-10.84,9.39-17.66,16.76-16.76,23.39-24.66S201,315,201,315Z"/><path class="cls-11" d="M66.74,319.63c8,45.33,124.88,36.64,134.28,19s16.76-16.76,23.39-24.66S201,315,201,315s3.53-9.83-5-7.5-15.78,18.57-63,10.84c-18.5-3-13.72-14.12-3.7-24.86"/><path class="cls-7" d="M186.6,205l-.75-.38a33.22,33.22,0,0,1-39.07,10c-.57.9-1.11,1.85-1.64,2.83a6,6,0,0,0,5.6,8.8,47.41,47.41,0,0,0,14.74-3.13C176.64,218.87,184.78,211.58,186.6,205Z"/><path class="cls-11" d="M142.62,212.45a33.19,33.19,0,0,0,45.58-11.26"/><path class="cls-13" d="M192.51,169.94c.79,14.58-9.19,22.88-20.53,22.88s-20.54-14.16-20.54-22.88,8.21-17.88,19.55-17.88S192,161.23,192.51,169.94Z"/><path class="cls-13" d="M154.4,162.88,140,164.59s-10.41,10.75,6.22,24.27c7.88,6.41,13.62-17.09,13.62-17.09Z"/><path class="cls-12" d="M141.3,186.51c-1.08,1.86-.52,6.85,6.92,7.29l1.22-2.66C148.25,183.77,143.21,183.22,141.3,186.51Z"/><path class="cls-11" d="M148.22,193.8c-7.44-.44-8-5.43-6.92-7.29,1.71-2.94,5.92-2.81,7.64,2.51"/><path class="cls-7" d="M143.68,187.82a1,1,0,0,1,.71-.51,1.43,1.43,0,0,1,.91.15,1.73,1.73,0,0,1,.63.6,1.71,1.71,0,0,1,.25.8c-.52-.27-.87-.55-1.23-.74A2.43,2.43,0,0,0,143.68,187.82Z"/><path class="cls-12" d="M145,193.52a48.45,48.45,0,0,0-1.34-14.28s-3.3-14.49,13.22-15.52c27.45-1.69,25.55,21.38,23.77,29.63a.43.43,0,0,1,0,.11c-.09.39-.17.76-.25,1.07s-.07.22-.06.14a20.49,20.49,0,0,1-20.52,15.69C148.75,210.28,144,202.7,145,193.52Z"/><circle class="cls-13" cx="159.41" cy="201.92" r="8.5"/><path class="cls-13" d="M187,166.5c-6.51-14.05-23.26-21.71-35.8-21-10.13.6-16.56,11.47-11.81,20.45,1.17,2.23,2.82,3.88,5.53,4,7.54.23,17.27-1.55,24.08.46a9.6,9.6,0,0,1,6.86,9.2c0,6.17-.88,16.86-7.5,16-8.2-1-8-1.33-15.07-.75s-7.21,2.08-8.69-10.71c0,0-1.74-4.84-3.45-5.09s.62,3.63.62,3.63,2,5.69-.41,15.1-5.83,27.82,6.92,29.15,26.57-1.87,29.57-17.75c2.56-13.56-.5-17.36,1.45-21.49a2.31,2.31,0,0,0,1-.12l1.22,4.61S191.89,177.09,187,166.5Z"/><path class="cls-11" d="M139.19,216.13c.57,5.62,3,10.19,9.08,10.83,12.75,1.34,26.57-1.87,29.57-17.75"/><path class="cls-11" d="M142.28,169.25a5.57,5.57,0,0,0,2.63.7c7.54.23,17.27-1.55,24.08.46"/><path class="cls-14" d="M163.65,178.14a8.23,8.23,0,0,1,6.22.94"/><path class="cls-7" d="M155.72,180.48a7.88,7.88,0,0,1,1.36,4.59,12.6,12.6,0,0,1-.44,2.39,17.06,17.06,0,0,1-.73,2.3,6,6,0,0,1-.57,1.1,3,3,0,0,0-.44.89c-.11.53.28,1,.83,1.44a3.93,3.93,0,0,0,1.89.78,2.82,2.82,0,0,0,2.08-.48,0,0,0,0,1,.07,0,0,0,0,0,1,0,.06,2.7,2.7,0,0,1-2.17,1.19,3.92,3.92,0,0,1-2.51-.7,3.19,3.19,0,0,1-.94-1,2,2,0,0,1-.17-1.51,3.07,3.07,0,0,1,.72-1.15,10.07,10.07,0,0,0,.72-.87,5.15,5.15,0,0,0,.89-2.11,8,8,0,0,0-.07-2.29c-.13-1.51-.36-3-.62-4.58,0,0,0-.05,0-.06Z"/><ellipse class="cls-7" cx="150.65" cy="186.2" rx="1.45" ry="1.29" transform="translate(-45.63 323.45) rotate(-85.99)"/><path class="cls-14" d="M153.28,179a6.76,6.76,0,0,0-5.11.91"/><circle class="cls-15" cx="149.49" cy="191.27" r="2.29"/><ellipse class="cls-7" cx="166.23" cy="185.82" rx="1.53" ry="1.36" transform="translate(-30.76 338.65) rotate(-85.99)"/><circle class="cls-15" cx="169.56" cy="191.27" r="2.41"/><path class="cls-7" d="M155,192.34s.42.91,2.51.3c1.85-.55,2.84.6,2,1.24a3.33,3.33,0,0,1-3.49.22,4.72,4.72,0,0,1-1.19-1.29"/><path class="cls-11" d="M161.49,197a5.07,5.07,0,0,1-4.17.5"/><path class="cls-12" d="M186.69,186.81c.95,2-.08,7.15-7.83,6.91l-.05-.12a7.44,7.44,0,0,1,1.38-7.53C182.52,183.59,185.5,184.27,186.69,186.81Z"/><path class="cls-11" d="M178.86,193.72c7.75.24,8.78-4.88,7.83-6.91-1.5-3.2-5.86-3.46-8.14,1.9"/><path class="cls-7" d="M184.11,188a2.44,2.44,0,0,0-1.35.18c-.4.16-.78.43-1.34.67a1.74,1.74,0,0,1,.34-.8,1.89,1.89,0,0,1,.71-.56,1.54,1.54,0,0,1,.95-.07A1,1,0,0,1,184.11,188Z"/><path class="cls-16" d="M202.73,314.47a59.67,59.67,0,0,1-5.95,1.74"/><path class="cls-17" d="M195.27,361s-4.83,23.5,22.67,36c0,0-31.53,90-10.67,254"/><path class="cls-7" d="M189.36,659.63a13.4,13.4,0,0,1-5.34-1.1l-10.37-4.44.08.21-27.95,14.53h78.63s-.29-3.22-.72-8.89l-.11-.31Z"/><path class="cls-17" d="M143.41,394.56c-7.34,58.13-10.24,157.32,30.32,259.74l-27.95,14.53"/><path class="cls-7" d="M219.73,241.74c-8.79,4.77-14.58,12.9-14.58,22.13,0,12.38,10.41,22.78,24.5,25.73A124.26,124.26,0,0,0,219.73,241.74Z"/><path class="cls-9" d="M187,203.05s29.92-8.09,79.92,26.41,90.5,3,90.5,3,1.78-11.05,10.78-13.55S378.41,221,378.41,221s21-24.5,21-14-6.88,15.33-5.5,20.27c3.83,13.73-10.77,51-78.25,65-39.92,8.25-75.41-3.35-114.37-23.75-8.37-4.38-7.47-53.76-17.18-59.25"/><path class="cls-12" d="M379.15,220.12a.81.81,0,0,1-1.24-.07c-.93-1.18-3.41-2.89-9.72-1.14-9,2.5-10.78,13.55-10.78,13.55s-.33.26-1,.69a45.09,45.09,0,0,0,24.28,27.34c12.28-13.06,15.14-26.24,13.18-33.26-1.38-4.94,5.5-9.77,5.5-20.27C399.41,197.64,382.87,215.89,379.15,220.12Z"/><path class="cls-16" d="M368.19,218.91c9-2.5,10.22,2.05,10.22,2.05s21-24.5,21-14-6.88,15.33-5.5,20.27c3.83,13.73-10.77,51-78.25,65"/><path class="cls-16" d="M377.4,219.53s4.2,3.81,1.7,12.56-7.19-3.19-7.19-3.19,2.06,6-1,11.37"/><line class="cls-1" x1="66.23" y1="668.83" x2="661.32" y2="668.83"/><rect class="cls-7" x="286.95" y="97.05" width="392.73" height="21.25" rx="10.62"/><rect class="cls-18" x="423.49" y="255.97" width="29.67" height="74.12"/><rect class="cls-18" x="473.52" y="209.21" width="29.67" height="120.87"/><rect class="cls-18" x="523.55" y="229.9" width="29.67" height="100.18"/><rect class="cls-3" x="573.58" y="163.64" width="29.67" height="166.45"/><rect class="cls-18" x="349.08" y="342.17" width="268.48" height="7.29"/></svg>